<svg width="18" height="18" viewBox="0 0 18 18" fill="none" xmlns="http://www.w3.org/2000/svg">
<path d="M9 1.50195C9.26325 1.50195 9.52201 1.57055 9.75 1.70215L15 4.70215C15.2278 4.83367 15.4172 5.02324 15.5488 5.25098C15.6804 5.47867 15.7497 5.73702 15.75 6V12C15.7497 12.263 15.6804 12.5213 15.5488 12.749C15.4172 12.9768 15.2278 13.1663 15 13.2979L9.75 16.2979C9.52201 16.4294 9.26325 16.498 9 16.498C8.73675 16.498 8.47799 16.4294 8.25 16.2979L3 13.2979C2.7722 13.1663 2.58281 12.9768 2.45117 12.749C2.31959 12.5213 2.25027 12.263 2.25 12V6C2.25027 5.73702 2.31959 5.47867 2.45117 5.25098C2.58281 5.02324 2.7722 4.83367 3 4.70215L8.25 1.70215C8.47799 1.57055 8.73675 1.50195 9 1.50195ZM9 6C7.34315 6 6 7.34315 6 9C6 10.6569 7.34315 12 9 12C10.6569 12 12 10.6569 12 9C12 7.34315 10.6569 6 9 6Z" fill="#999999"/>
</svg>
